<?xml version="1.0" encoding="UTF-8" standalone="no"?>
<!-- Created with Inkscape (http://www.inkscape.org/) -->

<svg
   width="100"
   height="96.633003"
   opacity="0.3"
   viewBox="0 0 26.458333 25.567481"
   version="1.1"
   id="svg1727"
   inkscape:version="1.1.1 (3bf5ae0d25, 2021-09-20)"
   sodipodi:docname="consortiumLogo.svg"
   xmlns:inkscape="http://www.inkscape.org/namespaces/inkscape"
   xmlns:sodipodi="http://sodipodi.sourceforge.net/DTD/sodipodi-0.dtd"
   xmlns:xlink="http://www.w3.org/1999/xlink"
   xmlns="http://www.w3.org/2000/svg"
   xmlns:svg="http://www.w3.org/2000/svg">
  <sodipodi:namedview
     id="namedview1729"
     pagecolor="#ffffff"
     bordercolor="#666666"
     borderopacity="1.0"
     inkscape:pageshadow="2"
     inkscape:pageopacity="0.0"
     inkscape:pagecheckerboard="0"
     inkscape:document-units="mm"
     showgrid="false"
     units="px"
     inkscape:zoom="2.5096339"
     inkscape:cx="57.777352"
     inkscape:cy="75.30979"
     inkscape:window-width="1280"
     inkscape:window-height="961"
     inkscape:window-x="-8"
     inkscape:window-y="-8"
     inkscape:window-maximized="1"
     inkscape:current-layer="layer1" />
  <defs
     id="defs1724">
    <linearGradient
       inkscape:collect="always"
       xlink:href="#linearGradient7808"
       id="linearGradient22219"
       gradientUnits="userSpaceOnUse"
       x1="5.6054039"
       y1="6.7799478"
       x2="5.6054039"
       y2="8.5019474" />
    <linearGradient
       inkscape:collect="always"
       id="linearGradient7808">
      <stop
         style="stop-color:#999999;stop-opacity:1;"
         offset="0"
         id="stop7804" />
      <stop
         style="stop-color:#999999;stop-opacity:0.24711317"
         offset="1"
         id="stop7806" />
    </linearGradient>
    <linearGradient
       inkscape:collect="always"
       xlink:href="#linearGradient7224"
       id="linearGradient22221"
       gradientUnits="userSpaceOnUse"
       x1="5.6054039"
       y1="7.7799478"
       x2="5.6054039"
       y2="6.940958" />
    <linearGradient
       inkscape:collect="always"
       id="linearGradient7224">
      <stop
         style="stop-color:#333333;stop-opacity:1;"
         offset="0"
         id="stop7220" />
      <stop
         style="stop-color:#505050;stop-opacity:1"
         offset="1"
         id="stop7222" />
    </linearGradient>
    <linearGradient
       inkscape:collect="always"
       xlink:href="#linearGradient8288"
       id="linearGradient22223"
       gradientUnits="userSpaceOnUse"
       x1="5.6054039"
       y1="7.0579476"
       x2="5.6054039"
       y2="7.7799478" />
    <linearGradient
       inkscape:collect="always"
       id="linearGradient8288">
      <stop
         style="stop-color:#f5f5f5;stop-opacity:1;"
         offset="0"
         id="stop8284" />
      <stop
         style="stop-color:#c6c6c6;stop-opacity:1"
         offset="1"
         id="stop8286" />
    </linearGradient>
    <linearGradient
       inkscape:collect="always"
       xlink:href="#linearGradient8288"
       id="linearGradient23060"
       x1="4.6049652"
       y1="7.7815495"
       x2="5.3496695"
       y2="8.7244549"
       gradientUnits="userSpaceOnUse" />
    <linearGradient
       inkscape:collect="always"
       xlink:href="#linearGradient12674"
       id="linearGradient22227"
       gradientUnits="userSpaceOnUse"
       x1="4.7893806"
       y1="8.2621832"
       x2="5.3436584"
       y2="8.2621832" />
    <linearGradient
       inkscape:collect="always"
       id="linearGradient12674">
      <stop
         style="stop-color:#cccccc;stop-opacity:1;"
         offset="0"
         id="stop12670" />
      <stop
         style="stop-color:#b4b4b4;stop-opacity:1"
         offset="1"
         id="stop12672" />
    </linearGradient>
    <linearGradient
       inkscape:collect="always"
       xlink:href="#linearGradient6376"
       id="linearGradient22229"
       gradientUnits="userSpaceOnUse"
       x1="5.6054039"
       y1="7.7799478"
       x2="6.6054039"
       y2="8.7799482" />
    <linearGradient
       inkscape:collect="always"
       id="linearGradient6376">
      <stop
         style="stop-color:#dc143c;stop-opacity:1;"
         offset="0"
         id="stop6372" />
      <stop
         style="stop-color:#a80f33;stop-opacity:1"
         offset="1"
         id="stop6374" />
    </linearGradient>
    <linearGradient
       inkscape:collect="always"
       xlink:href="#linearGradient5408"
       id="linearGradient22231"
       gradientUnits="userSpaceOnUse"
       x1="6.0205069"
       y1="8.1950512"
       x2="6.7837229"
       y2="8.9582672" />
    <linearGradient
       inkscape:collect="always"
       id="linearGradient5408">
      <stop
         style="stop-color:#aa0000;stop-opacity:1"
         offset="0"
         id="stop5404" />
      <stop
         style="stop-color:#800000;stop-opacity:1"
         offset="1"
         id="stop5406" />
    </linearGradient>
  </defs>
  <g
     inkscape:label="Layer 1"
     inkscape:groupmode="layer"
     id="layer1">
    <g
       id="g22217"
       transform="matrix(10.946107,0,0,10.946107,-48.584772,-73.294548)"
       style="display:inline">
      <path
         id="path22201"
         style="font-variation-settings:normal;opacity:1;fill:#000000;fill-opacity:1;fill-rule:evenodd;stroke:#000000;stroke-width:0.634961;stroke-linecap:round;stroke-linejoin:round;stroke-miterlimit:4;stroke-dasharray:none;stroke-dashoffset:0;stroke-opacity:1;paint-order:stroke fill markers;stop-color:#000000;stop-opacity:1"
         d="m 21.185547,25.625 a 3.7795276,3.7795276 0 0 0 -3.496094,2.349609 2.0476807,2.0476807 0 0 1 0.433594,-1.277343 4.0951181,4.0951181 0 0 0 -0.892578,3.767578 4.0951181,4.0951181 0 0 0 1.101562,1.875 c -0.05184,0.02513 -0.101347,0.05215 -0.146484,0.08398 -0.04354,0.03071 -0.08394,0.06448 -0.121094,0.101563 1.114255,1.114256 2.737663,1.550423 4.259766,1.142578 1.522101,-0.407845 2.711296,-1.597039 3.11914,-3.119141 0.407842,-1.522102 -0.02636,-3.145518 -1.140625,-4.259766 -0.03711,0.03716 -0.07084,0.07755 -0.101562,0.121094 -0.06143,0.08709 -0.110555,0.186245 -0.148438,0.296875 -0.01937,0.05656 -0.03622,0.116362 -0.05078,0.177735 A 3.7795276,3.7795276 0 0 0 21.185547,25.625 Z"
         transform="scale(0.26458333)" />
      <circle
         style="font-variation-settings:normal;opacity:1;vector-effect:none;fill:url(#linearGradient22219);fill-opacity:1;fill-rule:evenodd;stroke-width:3.96876;stroke-linecap:round;stroke-linejoin:round;stroke-miterlimit:4;stroke-dasharray:none;stroke-dashoffset:0;stroke-opacity:1;stop-color:#000000;stop-opacity:1"
         id="circle22203"
         cx="5.6054039"
         cy="7.7799478"
         r="1" />
      <circle
         style="font-variation-settings:normal;opacity:1;fill:url(#linearGradient22221);fill-opacity:1;fill-rule:evenodd;stroke:#000000;stroke-width:0.111;stroke-linecap:round;stroke-linejoin:round;stroke-miterlimit:4;stroke-dasharray:none;stroke-dashoffset:0;stroke-opacity:1;paint-order:stroke fill markers;stop-color:#000000;stop-opacity:1"
         id="circle22205"
         cx="5.6054039"
         cy="7.7799478"
         r="0.833" />
      <ellipse
         style="font-variation-settings:normal;opacity:1;fill:url(#linearGradient22223);fill-opacity:1;fill-rule:evenodd;stroke:none;stroke-width:0.111;stroke-linecap:round;stroke-linejoin:round;stroke-miterlimit:4;stroke-dasharray:none;stroke-dashoffset:0;stroke-opacity:1;paint-order:stroke fill markers;stop-color:#000000;stop-opacity:1"
         id="ellipse22207"
         cx="5.6054039"
         cy="7.7799478"
         rx="0.24066666"
         ry="0.722" />
      <path
         id="path22233"
         style="font-variation-settings:normal;fill:url(#linearGradient23060);fill-opacity:1;fill-rule:evenodd;stroke:#000000;stroke-width:0.111;stroke-linecap:round;stroke-linejoin:round;stroke-miterlimit:4;stroke-dasharray:none;stroke-dashoffset:0;stroke-opacity:1;paint-order:stroke fill markers;stop-color:#000000"
         d="M 4.7951376,7.0634415 A 1.0835,1.0835 0 0 0 4.558823,8.0603255 1.0835,1.0835 0 0 0 5.3253247,8.8264905 0.54178218,0.54178218 0 0 0 5.4659379,8.3030395 0.54178218,0.54178218 0 0 0 5.0824376,7.9200235 0.54178218,0.54178218 0 0 1 4.698937,7.5370075 0.54178218,0.54178218 0 0 1 4.7951376,7.0634415 Z" />
      <path
         style="font-variation-settings:normal;opacity:1;vector-effect:none;fill:url(#linearGradient22227);fill-opacity:1;stroke:none;stroke-width:0.264583;stroke-linecap:butt;stroke-linejoin:miter;stroke-miterlimit:4;stroke-dasharray:none;stroke-dashoffset:0;stroke-opacity:1;-inkscape-stroke:none;stop-color:#000000;stop-opacity:1"
         d="M 5.3436583,8.5079687 C 5.0383551,8.4711033 4.8135852,8.0926756 4.7893806,7.9325728 4.8340816,8.3622483 5.2291097,8.5685019 5.2983478,8.5917929 Z"
         id="path22211"
         sodipodi:nodetypes="cccc" />
      <path
         id="path22213"
         style="display:inline;opacity:1;fill:url(#linearGradient22229);fill-opacity:1;fill-rule:evenodd;stroke:#000000;stroke-width:0.111;stroke-linecap:round;stroke-linejoin:round;stroke-miterlimit:4;stroke-dasharray:none;paint-order:stroke fill markers;stop-color:#000000;stop-opacity:1"
         d="M 6.7319326,8.0826968 C 6.6240237,8.4854195 6.3094616,8.7999815 5.9067389,8.9078905 5.504016,9.0157995 5.0743166,8.9006615 4.7795032,8.6058478 c 0.00983,-0.00981 0.020524,-0.018771 0.032045,-0.026897 0.023042,-0.016253 0.049591,-0.029 0.078861,-0.039023 0.029271,-0.010024 0.061286,-0.017304 0.094835,-0.02305 0.033549,-0.00575 0.068618,-0.00997 0.1036943,-0.014189 0.035077,-0.00422 0.070146,-0.00844 0.1036951,-0.01419 0.033549,-0.00575 0.065564,-0.013026 0.094836,-0.02305 0.029271,-0.010024 0.055778,-0.022813 0.078861,-0.039023 0.023112,-0.016183 0.042689,-0.035901 0.058942,-0.058942 0.016254,-0.023042 0.029,-0.049591 0.039023,-0.078862 0.010024,-0.029271 0.017304,-0.061286 0.023049,-0.094835 0.00575,-0.033549 0.00997,-0.068618 0.014189,-0.1036944 0.00422,-0.035077 0.00844,-0.070146 0.01419,-0.103695 0.00575,-0.033549 0.013026,-0.065564 0.02305,-0.094836 0.010024,-0.029271 0.022813,-0.055778 0.039023,-0.078862 0.016183,-0.023112 0.035901,-0.042689 0.058942,-0.058942 0.023042,-0.016253 0.049591,-0.029 0.078861,-0.039023 0.029271,-0.010024 0.061286,-0.017304 0.094835,-0.02305 0.033549,-0.00575 0.068618,-0.00997 0.1036943,-0.014189 0.035077,-0.00422 0.070146,-0.00844 0.1036951,-0.01419 0.033549,-0.00575 0.065564,-0.013026 0.094836,-0.02305 0.029271,-0.010024 0.055778,-0.022813 0.078861,-0.039023 0.023112,-0.016183 0.042689,-0.035901 0.058942,-0.058942 0.016254,-0.023042 0.029,-0.049591 0.039023,-0.078862 0.010024,-0.029271 0.017304,-0.061286 0.023049,-0.094835 0.00575,-0.033549 0.00997,-0.068618 0.014189,-0.1036944 0.00422,-0.035077 0.00844,-0.070145 0.014189,-0.1036943 0.00575,-0.033549 0.013026,-0.065564 0.02305,-0.094835 0.010023,-0.029271 0.022769,-0.05582 0.039023,-0.078862 0.00813,-0.01152 0.01708,-0.022214 0.026899,-0.032047 0.2948158,0.2948113 0.4099532,0.7245106 0.302045,1.1272334 z"
         sodipodi:nodetypes="sscssscsscssscsscssscsscssscssscs" />
      <path
         id="path22215"
         style="opacity:1;fill:url(#linearGradient22231);fill-opacity:1;fill-rule:evenodd;stroke-width:3.969;stroke-linecap:round;stroke-linejoin:round;stroke-miterlimit:4;stroke-dasharray:none;stop-color:#000000;stop-opacity:1"
         d="m 6.0101499,8.2008245 c -0.00705,0.0077 -0.013304,0.01581 -0.019367,0.02448 -0.016208,0.02308 -0.029075,0.04929 -0.039098,0.07856 -0.010028,0.02928 -0.017638,0.06145 -0.023386,0.09501 -0.00575,0.03354 -0.00966,0.0687 -0.013886,0.103776 -0.00422,0.03507 -0.0085,0.06986 -0.014251,0.10341 -0.00574,0.03355 -0.012997,0.0661 -0.023021,0.09537 -0.010022,0.02927 -0.022845,0.05552 -0.039098,0.07856 -0.016254,0.02304 -0.035719,0.04265 -0.058831,0.05883 -0.023083,0.01621 -0.049659,0.02944 -0.078928,0.03946 -0.02927,0.01002 -0.061458,0.01685 -0.095006,0.02266 -0.03355,0.0058 -0.068336,0.01005 -0.1034106,0.01425 -0.034832,0.0042 -0.069711,0.0082 -0.1030449,0.01389 0.1662337,0.02986 0.3392569,0.024 0.5079165,-0.02119 0.2013583,-0.05396 0.3811606,-0.159724 0.523629,-0.302192 0.1424686,-0.142469 0.2478751,-0.321908 0.3018266,-0.523264 0.045189,-0.168656 0.051058,-0.341685 0.021194,-0.507917 -0.00569,0.03333 -0.00969,0.06821 -0.013886,0.103045 -0.00422,0.03508 -0.0085,0.06986 -0.014251,0.103411 -0.00574,0.03355 -0.012632,0.06574 -0.022655,0.09501 -0.010022,0.02927 -0.023211,0.05589 -0.039464,0.07893 -0.016254,0.02304 -0.035719,0.04265 -0.058831,0.05883 -0.023083,0.01621 -0.049293,0.02908 -0.078563,0.0391 -0.02927,0.01002 -0.061824,0.01722 -0.095371,0.02302 -0.03355,0.0058 -0.068336,0.01005 -0.1034104,0.01425 -0.035078,0.0042 -0.070228,0.0082 -0.1037757,0.01389 -0.033552,0.0057 -0.065737,0.01336 -0.095006,0.02339 -0.029269,0.01002 -0.055523,0.02285 -0.078563,0.0391 -0.0144,0.01016 -0.027712,0.02154 -0.039464,0.03435 z" />
    </g>
  </g>
</svg>
