<?xml version="1.0" encoding="UTF-8" standalone="no"?>
<!-- Created with Inkscape (http://www.inkscape.org/) -->

<svg
   width="100"
   height="96.357002"
   opacity="0.1"
   viewBox="0 0 26.458333 25.494458"
   version="1.1"
   id="svg1688"
   inkscape:version="1.1.1 (3bf5ae0d25, 2021-09-20)"
   sodipodi:docname="consortiumLogoSolid.svg"
   xmlns:inkscape="http://www.inkscape.org/namespaces/inkscape"
   xmlns:sodipodi="http://sodipodi.sourceforge.net/DTD/sodipodi-0.dtd"
   xmlns="http://www.w3.org/2000/svg"
   xmlns:svg="http://www.w3.org/2000/svg">
  <sodipodi:namedview
     id="namedview1690"
     pagecolor="#ffffff"
     bordercolor="#666666"
     borderopacity="1.0"
     inkscape:pageshadow="2"
     inkscape:pageopacity="0.0"
     inkscape:pagecheckerboard="0"
     inkscape:document-units="px"
     showgrid="false"
     units="px"
     inkscape:zoom="3.5491582"
     inkscape:cx="46.771654"
     inkscape:cy="-47.898681"
     inkscape:window-width="1280"
     inkscape:window-height="961"
     inkscape:window-x="-8"
     inkscape:window-y="-8"
     inkscape:window-maximized="1"
     inkscape:current-layer="layer1" />
  <defs
     id="defs1685" />
  <g
     inkscape:label="Layer 1"
     inkscape:groupmode="layer"
     id="layer1">
    <path
       id="circle23876"
       style="font-variation-settings:normal;vector-effect:none;fill:#333333;fill-opacity:1;fill-rule:evenodd;stroke-width:46.6897;stroke-linecap:round;stroke-linejoin:round;stroke-miterlimit:4;stroke-dasharray:none;stroke-dashoffset:0;stroke-opacity:1;stop-color:#000000"
       d="m 12.738376,0.00135638 c -4.0343404,0.003 -7.7859904,2.07229002 -9.9398104,5.48360002 -0.3447,1.04232 -0.38822,2.18064 -0.0941,3.2646 0.004,0.0118 0.008,0.0353 0.0118,0.0471 1.28055,-4.32363 5.28972,-7.48377 10.0248704,-7.48365 3.17002,-1.2e-4 6.00993,1.42007 7.92752,3.65365 0.0235,-0.19411 0.0588,-0.39293 0.0941,-0.58939 0.0588,-0.34352 0.11764,-0.68116 0.20705,-1.00938 -2.12182,-2.08053 -5.02491,-3.3676600188 -8.2314,-3.3679000188 z m -0.21881,1.96371002 c -4.5842204,0.10588 -8.4985704,3.37966 -9.3926604,7.89705 0.73292,1.4300696 2.055,2.5066296 3.64166,2.9302596 1.30254,0.34823 2.44757,1.05173 3.3314204,2.00629 -0.1235204,-0.9682 -0.1882304,-1.99641 -0.1882304,-3.03367 2.4e-4,-4.6854996 1.2651404,-8.4857396 2.8269804,-8.4929096 1.33466,0.0118 2.48474,2.82391 2.76003,6.7420196 0.27058,-0.0353 0.53998,-0.0706 0.80233,-0.0941 0.41293,-0.0471 0.80115,-0.0941 1.1729,-0.15764 0.37293,-0.0588 0.71175,-0.15294 1.00938,-0.25529 0.29764,-0.10588 0.57293,-0.21646 0.78469,-0.36469 0.2094,-0.14706 0.37881,-0.34117 0.52939,-0.55293 0.14823,-0.2094 0.26235,-0.46116 0.3647,-0.75997 0.10587,-0.29764 0.19175,-0.63646 0.25528,-1.00939 0.0471,-0.30352 0.0941,-0.63174 0.13412,-0.96702 -1.85218,-2.4464 -4.74339,-3.88424 -7.812,-3.88459 -0.0706,0 -0.14588,-0.002 -0.21882,0 z m 9.92157,0.0941 c -0.11764,0.11764 -0.21999,0.24117 -0.31646,0.37646 -0.19175,0.27058 -0.34469,0.58586 -0.46233,0.93056 -0.11765,0.3447 -0.2,0.72351 -0.26706,1.11879 -0.0706,0.3941 -0.11999,0.8035 -0.17058,1.21596 -0.0471,0.41293 -0.0941,0.82704 -0.16352,1.22196 -0.0706,0.39411 -0.15529,0.76822 -0.27411,1.11291 -0.11765,0.3447 -0.2647,0.65881 -0.45528,0.93056 -0.19176,0.27058 -0.42117,0.50234 -0.69292,0.69292 -0.27176,0.19058 -0.58587,0.3435196 -0.93056,0.4623396 -0.3447,0.11764 -0.72351,0.19999 -1.11879,0.26705 -0.39411,0.0706 -0.80351,0.12117 -1.21585,0.17058 -0.41293,0.0471 -0.82703,0.0941 -1.22196,0.1647 -0.3941,0.0706 -0.76821,0.15529 -1.11291,0.27294 -0.34469,0.11764 -0.6588,0.2647 -0.93056,0.45645 -0.27058,0.19176 -0.50233,0.42117 -0.69292,0.69292 -0.19058,0.27176 -0.34352,0.58587 -0.46234,0.93056 -0.11764,0.3447 -0.19999,0.71763 -0.26705,1.11291 -0.0706,0.39411 -0.12117,0.80939 -0.17058,1.22196 -0.0471,0.41293 -0.0941,0.82704 -0.16352,1.22197 -0.0706,0.3941 -0.15529,0.76821 -0.27411,1.1129 -0.11765,0.3447 -0.2647,0.65881 -0.45646,0.93056 -0.19176,0.27058 -0.42116,0.50234 -0.6929204,0.69292 -0.27176,0.19059 -0.58586,0.33764 -0.93056,0.45646 -0.34469,0.11764 -0.71762,0.20588 -1.11291,0.27411 -0.3941,0.0706 -0.80938,0.12117 -1.22196,0.17058 -0.41293,0.0471 -0.82703,0.0941 -1.22196,0.16353 -0.39411,0.0706 -0.76821,0.15529 -1.11291,0.27293 -0.34469,0.11764 -0.6588,0.2647 -0.93056,0.45646 -0.13529,0.0941 -0.26117,0.20117 -0.37646,0.31646 1.85606,1.85629 4.16552,3.10484 6.63862,3.672 0.0471,-0.24587 0.23529,-0.46234 0.5470504,-0.51057 0.41645,-0.0706 0.83291,-0.11764 1.24019,-0.16352 0.41175,-0.0471 0.7941,-0.0941 1.16703,-0.15765 0.37881,-0.0706 0.74233,-0.15529 1.03408,-0.25528 0.29176,-0.10588 0.54469,-0.23764 0.75998,-0.3894 0.2094,-0.14706 0.37881,-0.31529 0.52939,-0.5294 0.14941,-0.21176 0.26941,-0.46351 0.37058,-0.75998 0.10588,-0.29528 0.1847,-0.63527 0.24941,-1.00938 0.0588,-0.3741 0.11764,-0.78585 0.16352,-1.19761 0.0471,-0.40822 0.0824,-0.8188 0.15764,-1.24019 0.0706,-0.42117 0.18941,-0.82821 0.32235,-1.21597 0.13529,-0.39293 0.29763,-0.77174 0.52939,-1.09996 0.0823,-0.11765 0.16588,-0.22941 0.27411,-0.34705 0.17411,-0.18941 0.37528,-0.36234 0.57763,-0.50469 0.3294,-0.23294 0.70704,-0.39411 1.09997,-0.5294 0.38704,-0.13293 0.79409,-0.25058 1.21596,-0.32234 0.41881,-0.0706 0.83644,-0.10588 1.2462,-0.15764 0.41175,-0.0471 0.81879,-0.0941 1.19161,-0.16353 0.37528,-0.0706 0.71409,-0.15411 1.00938,-0.25528 0.29528,-0.10588 0.54586,-0.21411 0.75997,-0.3647 0.20941,-0.14705 0.40352,-0.31646 0.55293,-0.52939 0.15058,-0.21294 0.2647,-0.46705 0.36469,-0.75998 0.10588,-0.29293 0.19059,-0.65645 0.25529,-1.03409 0.0588,-0.3741 0.10588,-0.75527 0.15764,-1.16702 0.0471,-0.40705 0.0941,-0.8293896 0.1647,-1.2461996 0.0471,-0.27293 0.24941,-0.48116 0.51057,-0.53527 -0.56704,-2.47346 -1.8157,-4.78856 -3.672,-6.64486 z M 3.2059656,3.3297164 A 12.746669,12.746669 0 0 0 0.42769563,15.056886 12.746669,12.746669 0 0 0 3.3823156,20.406726 c 0.23646,-0.12353 0.48586,-0.22235 0.74115,-0.31058 0.39058,-0.13411 0.7988,-0.22588 1.21596,-0.29764 0.37646,-0.0588 0.75174,-0.12235 1.12467,-0.17058 -1.45583,-1.25326 -2.99661,-3.2232 -3.31331,-5.98205 0.27294,1.49419 1.90147,4.41551 4.26164,5.86052 0.12352,-0.0118 0.24705,-0.0353 0.36469,-0.0588 0.37293,-0.0588 0.71175,-0.15294 1.00938,-0.25529 0.29764,-0.10587 0.54822,-0.21646 0.75998,-0.36469 0.20941,-0.14705 0.40352,-0.31646 0.5529204,-0.5294 0.14824,-0.2094 0.26235,-0.46116 0.3647,-0.75997 0.0823,-0.22823 0.14941,-0.49175 0.20705,-0.77174 a 6.3737131,6.3737131 0 0 0 -4.0854004,-3.3619 6.3737131,6.3737131 0 0 1 -4.51092,-4.5047996 6.3737131,6.3737131 0 0 1 1.13055,-5.57478 z m 9.5325304,0.58939 c -0.12588,5.9e-4 -0.32234,0.0823 -0.58939,0.42587 -0.26705,0.33999 -0.55057,0.90233 -0.79057,1.62313 -0.47998,1.44231 -0.79644,3.50966 -0.79644,5.7937096 0,1.33878 0.11764,2.58968 0.30352,3.69624 0.005,-0.0471 0.007,-0.0823 0.0118,-0.12118 0.0471,-0.41293 0.0941,-0.84703 0.1647,-1.26455 0.0706,-0.41645 0.16353,-0.82468 0.29764,-1.21584 0.13411,-0.39175 0.31999,-0.75057 0.55292,-1.08232 0.23411,-0.33411 0.51528,-0.61292 0.84468,-0.84468 0.33293,-0.23411 0.69175,-0.41999 1.08232,-0.55293 0.33646,-0.11764 0.68822,-0.19999 1.04585,-0.26705 -0.10587,-1.6197096 -0.37998,-3.0616696 -0.74115,-4.1461096 -0.24117,-0.72115 -0.5294,-1.28466 -0.79645,-1.62324 -0.26705,-0.33881 -0.46351,-0.41999 -0.58939,-0.41999 z m 13.50229,5.4229 c -0.0706,0.39175 -0.10588,0.7999696 -0.15764,1.2097196 -0.0471,0.41293 -0.10588,0.82704 -0.17058,1.22197 -0.0706,0.39528 -0.14941,0.76821 -0.26705,1.1129 -0.11765,0.3447 -0.27058,0.65881 -0.46234,0.93056 -0.19176,0.27058 -0.42116,0.50234 -0.69292,0.69292 -0.27176,0.19059 -0.57998,0.34352 -0.9235,0.46234 -0.3447,0.11765 -0.73057,0.19882 -1.12467,0.26705 -0.39411,0.0706 -0.80351,0.12118 -1.21597,0.17059 -0.41293,0.0471 -0.82703,0.0941 -1.22196,0.16352 -0.39411,0.0706 -0.76821,0.15529 -1.11291,0.27411 -0.34469,0.11764 -0.65292,0.27058 -0.9235,0.46234 -0.1694,0.12 -0.3294,0.25058 -0.46822,0.40116 -0.0823,0.0941 -0.15411,0.18353 -0.2247,0.28588 -0.19058,0.27175 -0.34469,0.57998 -0.46234,0.92467 -0.11764,0.3447 -0.20587,0.72351 -0.27411,1.11879 -0.0706,0.39411 -0.11764,0.80939 -0.1647,1.22197 -0.0471,0.41293 -0.10588,0.82115 -0.17058,1.21584 -0.0706,0.39528 -0.14941,0.77998 -0.26705,1.12467 -0.11764,0.3447 -0.27058,0.65292 -0.46234,0.9235 -0.19058,0.27058 -0.42116,0.50234 -0.69292,0.69292 -0.27176,0.19059 -0.57998,0.34352 -0.9235,0.46234 -0.3447,0.11765 -0.72351,0.19882 -1.11879,0.26705 -0.39411,0.0706 -0.8035,0.11765 -1.21584,0.16353 -0.4094,0.0471 -0.82351,0.0941 -1.21597,0.1647 1.95571,0.35175 3.99188,0.28234 5.97605,-0.2494 2.36887,-0.63528 4.48246,-1.8743 6.1584,-3.55037 1.67607,-1.67606 2.91568,-3.78965 3.55037,-6.1584 0.53175,-1.98417 0.60115,-4.02046 0.2494,-5.9760496 z"
       inkscape:export-filename="F:\Artwork\consortiumLogoBlankBlack.png"
       inkscape:export-xdpi="5649.2075"
       inkscape:export-ydpi="5649.2075" />
  </g>
</svg>
